M48
; DRILL file {KiCad 9.0.2} date 2025-07-07T17:34:00+0100
; FORMAT={-:-/ absolute / metric / decimal}
; #@! TF.CreationDate,2025-07-07T17:34:00+01:00
; #@! TF.GenerationSoftware,Kicad,Pcbnew,9.0.2
; #@! TF.FileFunction,Plated,1,2,PTH
FMAT,2
METRIC
; #@! TA.AperFunction,Plated,PTH,ViaDrill
T1C0.300
; #@! TA.AperFunction,Plated,PTH,ComponentDrill
T2C0.600
; #@! TA.AperFunction,Plated,PTH,ComponentDrill
T3C0.800
; #@! TA.AperFunction,Plated,PTH,ComponentDrill
T4C1.000
; #@! TA.AperFunction,Plated,PTH,ComponentDrill
T5C1.270
; #@! TA.AperFunction,Plated,PTH,ComponentDrill
T6C1.800
; #@! TA.AperFunction,Plated,PTH,ComponentDrill
T7C1.900
; #@! TA.AperFunction,Plated,PTH,ComponentDrill
T8C2.700
; #@! TA.AperFunction,Plated,PTH,ViaDrill
T9C3.000
%
G90
G05
T1
X38.4Y-47.0
X42.8Y-41.0
X43.0Y-43.4
X45.2Y-68.0
X47.6Y-48.2
X48.8Y-34.6
X51.8Y-70.2
X53.8Y-28.8
X56.0Y-18.6
X56.4Y-40.6
X58.8Y-90.2
X59.4Y-54.0
X61.0Y-37.3
X63.6Y-85.6
X65.7Y-49.3
X66.6Y-23.8
X67.4Y-51.0
X68.4Y-90.4
X68.8Y-18.0
X70.8Y-77.8
X73.0Y-85.4
X76.4Y-28.6
X76.8Y-80.4
X78.4Y-90.4
X81.8Y-19.6
X82.4Y-24.2
X83.0Y-85.2
X94.2Y-34.4
X95.8Y-67.4
X99.6Y-84.0
X107.0Y-74.0
T3
X63.114Y-39.723
X63.114Y-65.127
X65.654Y-39.85
X65.654Y-65.0
X68.194Y-39.723
X68.194Y-65.127
X70.734Y-39.596
X70.734Y-65.254
X73.274Y-39.723
X73.274Y-65.127
X75.814Y-39.85
X75.814Y-65.0
X78.354Y-39.723
X78.354Y-65.127
X80.894Y-39.596
X80.894Y-65.254
X83.434Y-39.723
X83.434Y-65.127
X85.974Y-39.85
X85.974Y-65.0
X88.514Y-39.723
X88.514Y-65.127
X91.054Y-39.596
X91.054Y-65.254
X93.594Y-39.723
X93.594Y-65.127
X96.134Y-39.85
X96.134Y-65.0
X98.674Y-39.723
X98.674Y-65.127
X101.214Y-39.596
X101.214Y-65.254
X103.754Y-39.727
X103.754Y-65.127
X106.294Y-39.854
X106.294Y-65.0
X108.834Y-39.727
X108.834Y-65.127
T4
X90.0Y-16.5
X99.18Y-71.6
X99.38Y-76.4
X99.38Y-81.4
X101.0Y-16.5
X101.72Y-71.6
X101.92Y-76.4
X101.92Y-81.4
X104.26Y-71.6
X104.46Y-76.4
X104.46Y-81.4
X106.8Y-71.6
X107.0Y-76.4
X107.0Y-81.4
T5
X31.0Y-30.5
X31.0Y-38.12
X31.0Y-66.5
X31.0Y-74.12
T6
X36.25Y-23.162
X36.25Y-81.837
X49.75Y-23.162
X49.75Y-81.837
T7
X93.0Y-26.5
X98.0Y-26.5
T8
X31.0Y-48.65
X31.0Y-55.85
X39.4Y-29.162
X39.4Y-75.837
X46.6Y-29.162
X46.6Y-75.837
T9
X16.516Y-17.047
X16.547Y-87.984
X107.5Y-16.9
X107.501Y-87.998
T2
G00X24.45Y-45.5
M15
G01X25.55Y-45.5
M16
G05
G00X24.45Y-59.0
M15
G01X25.55Y-59.0
M16
G05
M30
