M48
; DRILL file {KiCad 9.0.2} date 2025-07-08T15:42:54+0100
; FORMAT={-:-/ absolute / metric / decimal}
; #@! TF.CreationDate,2025-07-08T15:42:54+01:00
; #@! TF.GenerationSoftware,Kicad,Pcbnew,9.0.2
; #@! TF.FileFunction,Plated,1,2,PTH
FMAT,2
METRIC
; #@! TA.AperFunction,Plated,PTH,ViaDrill
T1C0.300
; #@! TA.AperFunction,Plated,PTH,ComponentDrill
T2C0.600
; #@! TA.AperFunction,Plated,PTH,ComponentDrill
T3C0.800
; #@! TA.AperFunction,Plated,PTH,ComponentDrill
T4C1.000
; #@! TA.AperFunction,Plated,PTH,ComponentDrill
T5C1.270
; #@! TA.AperFunction,Plated,PTH,ComponentDrill
T6C1.800
; #@! TA.AperFunction,Plated,PTH,ComponentDrill
T7C1.900
; #@! TA.AperFunction,Plated,PTH,ComponentDrill
T8C2.700
; #@! TA.AperFunction,Plated,PTH,ComponentDrill
T9C3.200
%
G90
G05
T1
X57.05Y-56.56
X59.0Y-61.4
X61.35Y-73.65
X63.4Y-55.4
X63.6Y-57.8
X63.87Y-52.0
X64.27Y-70.01
X65.8Y-82.4
X68.2Y-62.6
X69.4Y-49.0
X70.98Y-82.34
X74.36Y-82.2
X76.6Y-33.0
X76.75Y-99.24
X77.47Y-43.0
X77.98Y-68.98
X81.6Y-51.7
X83.47Y-72.63
X86.15Y-99.33
X86.3Y-63.7
X86.6Y-43.0
X88.0Y-65.4
X89.4Y-32.4
X91.4Y-92.2
X96.04Y-99.55
X96.57Y-43.0
X97.4Y-94.8
X102.4Y-34.0
X105.86Y-99.48
X106.96Y-47.37
X110.08Y-48.51
X114.8Y-48.8
X116.4Y-81.8
T3
X83.75Y-56.61
X83.75Y-79.47
X86.29Y-56.61
X86.29Y-79.47
X88.83Y-56.61
X88.83Y-79.47
X91.37Y-56.61
X91.37Y-79.47
X93.91Y-56.61
X93.91Y-79.47
X96.45Y-56.61
X96.45Y-79.47
X98.99Y-56.61
X98.99Y-79.47
X101.53Y-56.61
X101.53Y-79.47
X104.07Y-56.61
X104.07Y-79.47
X106.61Y-56.61
X106.61Y-79.47
X109.15Y-56.61
X109.15Y-79.47
X111.69Y-56.61
X111.69Y-79.47
X114.23Y-56.61
X114.23Y-79.47
X116.77Y-56.61
X116.77Y-79.47
X119.31Y-56.61
X119.31Y-79.47
X121.85Y-56.61
X121.85Y-79.47
X124.39Y-56.61
X124.39Y-79.47
X126.93Y-56.61
X126.93Y-79.47
X129.47Y-56.61
X129.47Y-79.47
T4
X110.6Y-30.875
X119.78Y-86.0
X119.98Y-90.8
X119.98Y-95.8
X121.6Y-30.875
X122.32Y-86.0
X122.52Y-90.8
X122.52Y-95.8
X124.86Y-86.0
X125.06Y-90.8
X125.06Y-95.8
X127.4Y-86.0
X127.6Y-90.8
X127.6Y-95.8
T5
X51.6Y-44.9
X51.6Y-52.52
X51.6Y-80.9
X51.6Y-88.52
T6
X56.85Y-37.562
X56.85Y-96.237
X70.35Y-37.562
X70.35Y-96.237
T7
X113.6Y-40.875
X118.6Y-40.875
T8
X51.6Y-63.0
X51.6Y-70.2
X60.0Y-43.562
X60.0Y-90.237
X67.2Y-43.562
X67.2Y-90.237
T9
X37.116Y-31.447
X37.147Y-102.384
X128.1Y-31.3
X128.101Y-102.398
T2
G00X45.05Y-59.85
M15
G01X46.15Y-59.85
M16
G05
G00X45.05Y-73.35
M15
G01X46.15Y-73.35
M16
G05
M30
